<svg width="26" height="26" viewBox="0 0 26 26" fill="none" xmlns="http://www.w3.org/2000/svg">
<path d="M23 7C23 6.44772 22.5523 6 22 6H4C3.44772 6 3 6.44772 3 7V19C3 19.5523 3.44772 20 4 20H22C22.5523 20 23 19.5523 23 19V7ZM25 19C25 20.6569 23.6569 22 22 22H4C2.34315 22 1 20.6569 1 19V7C1 5.34315 2.34315 4 4 4H22C23.6569 4 25 5.34315 25 7V19Z" fill="black"/>
<path d="M24 10C24.5523 10 25 10.4477 25 11C25 11.5523 24.5523 12 24 12H2C1.44772 12 1 11.5523 1 11C1 10.4477 1.44772 10 2 10H24Z" fill="black"/>
</svg>
