<svg width="38" height="14" viewBox="0 0 38 14" fill="none" xmlns="http://www.w3.org/2000/svg">
<path d="M37 6C37.5523 6 38 6.44772 38 7C38 7.55228 37.5523 8 37 8H1C0.447715 8 0 7.55228 0 7C0 6.44772 0.447715 6 1 6H37Z" fill="black"/>
<path d="M30.2929 0.292893C30.6834 -0.0976311 31.3164 -0.0976311 31.707 0.292893L37.6366 6.22258C38.0657 6.65206 38.0657 7.3478 37.6366 7.77727L31.707 13.707C31.3164 14.0975 30.6834 14.0975 30.2929 13.707C29.9024 13.3164 29.9024 12.6834 30.2929 12.2929L35.5859 6.99992L30.2929 1.70696C29.9024 1.31643 29.9024 0.683418 30.2929 0.292893Z" fill="black"/>
</svg>
