<!-- Generated by IcoMoon.io -->
<svg version="1.1" xmlns="http://www.w3.org/2000/svg" width="1071" height="1024" viewBox="0 0 1071 1024">
<g id="icomoon-ignore">
</g>
<path fill="#fff" d="M958.822 279.273c58.131 0 102.065 52.687 91.592 109.864l-93.864 512.002-1.866 8.136c-11.064 39.959-47.588 68.18-89.726 68.18v-93.091l93.864-512h-850.728l76.818 512v93.091l-8.546-0.41c-39.476-3.603-72.428-31.958-81.864-70.456l-1.682-8.406-76.773-512.001c-8.442-56.282 35.135-106.907 92.046-106.909h850.728zM864.959 884.364v93.091h-680.046v-93.091h680.046z"></path>
<path fill="#fff" d="M663.273 279.273c0-77.119-62.515-139.636-139.636-139.636-77.119 0-139.636 62.518-139.636 139.636v46.545h-93.091v-46.545c0-128.532 104.196-232.727 232.727-232.727s232.727 104.196 232.727 232.727v46.545h-93.091v-46.545z"></path>
</svg>
