<!-- Generated by IcoMoon.io -->
<svg version="1.1" xmlns="http://www.w3.org/2000/svg" width="1024" height="1024" viewBox="0 0 1024 1024">
<g id="icomoon-ignore">
</g>
<path fill="#000" d="M57.132 804.131v-158.472c0-53.577 43.422-97 97-97v70.052l-5.421 0.523c-12.286 2.511-21.527 13.398-21.527 26.425v158.472l0.579 11c5.154 50.737 45.472 91.066 96.21 96.213l11 0.577h158.474l5.421-0.577c10.513-2.161 18.79-10.434 20.947-20.949l0.579-5.422v-158.472c0-55.808-42.438-101.689-96.79-107.213l-11-0.577v-70.052c98.215 0.011 177.842 79.624 177.842 177.842v158.472c-0.012 53.561-43.441 96.989-97 97h-158.474c-98.217 0-177.829-79.624-177.842-177.842zM312.605 548.659v70.052h-158.474v-70.052h158.474z"></path>
<path fill="#000" d="M929.156 804.131v-158.472c0-13.021-9.248-23.908-21.526-26.425l-5.422-0.523v-70.052c53.571 0.011 97 43.428 97 97v158.472c-0.011 98.207-79.635 177.831-177.842 177.842h-158.472c-53.571 0-96.989-43.434-97-97v-158.472c0-98.229 79.619-177.842 177.842-177.842v70.052c-59.532 0-107.789 48.257-107.789 107.789v158.472c0.011 13.016 9.248 23.859 21.526 26.371l5.422 0.577h158.472l11-0.577c50.731-5.152 91.061-45.482 96.213-96.213l0.577-11zM902.209 548.659v70.052h-158.472v-70.052h158.472z"></path>
<path fill="#000" d="M420.395 312.605v-158.474c0-13.019-9.251-23.905-21.526-26.421l-5.421-0.527v-70.052c53.567 0.012 97 43.43 97 97v158.474c-0.012 98.207-79.635 177.83-177.842 177.842h-158.474c-53.57 0-96.987-43.433-97-97v-158.474c0-98.225 79.617-177.842 177.842-177.842v70.052c-59.531 0-107.789 48.259-107.789 107.789v158.474c0.011 13.015 9.25 23.86 21.527 26.369l5.421 0.579h158.474l11-0.579c50.728-5.153 91.058-45.482 96.211-96.211l0.579-11zM393.447 57.132v70.052h-158.474v-70.052h158.474z"></path>
<path fill="#000" d="M814.371 145.5c-0.016-10.997-8.952-19.888-19.952-19.895h-36.681c-10.995 0.012-19.882 8.901-19.898 19.895 0 49.708-40.346 90.053-90.053 90.053-10.995 0.013-19.882 8.9-19.893 19.895v36.684c0.005 10.999 8.898 19.934 19.893 19.948 49.707 0 90.053 40.292 90.053 90 0.011 10.999 8.898 19.935 19.898 19.948h36.681c11.005-0.007 19.941-8.945 19.952-19.948 0-49.708 40.292-90 89.999-90 11-0.008 19.941-8.945 19.946-19.948v-36.684c-0.011-10.998-8.947-19.887-19.946-19.895-49.707 0-89.999-40.345-89.999-90.053zM884.423 145.5c0 11.013 8.93 19.947 19.946 19.947 49.691 0.008 89.988 40.308 89.999 90v36.684c-0.005 49.697-40.302 89.992-89.999 90-11.016 0-19.946 8.934-19.946 19.948-0.011 49.697-40.302 89.993-90.004 90h-36.681c-49.696-0.012-89.993-40.306-90.004-90 0-11.013-8.93-19.948-19.946-19.948-49.691-0.013-89.993-40.306-89.999-90v-36.684c0.011-49.689 40.313-89.986 89.999-90 11.016 0 19.946-8.934 19.946-19.947 0.016-49.689 40.313-89.988 90.004-90h36.681c49.696 0.006 89.988 40.307 90.004 90z"></path>
</svg>
