<svg width="129" height="126" viewBox="0 0 129 126" fill="none" xmlns="http://www.w3.org/2000/svg">
<path d="M72.76 7.06C72.76 4.83 74.96 3 77.71 3C80.46 3 82.66 4.81 82.66 7.06V24.8C82.66 27.03 80.46 28.86 77.71 28.86C74.96 28.86 72.76 27.05 72.76 24.8V7.06ZM17.37 81.05H28.71C29.43 81.05 30.02 81.64 30.02 82.36V90.74C30.02 91.46 29.43 92.05 28.71 92.05H17.37C16.65 92.05 16.06 91.46 16.06 90.74V82.36C16.06 81.63 16.65 81.05 17.37 81.05ZM60.79 57.17H72.13C72.48 57.17 72.79 57.31 73.03 57.53C68.58 60.31 64.72 63.93 61.66 68.18H60.79C60.07 68.18 59.48 67.59 59.48 66.87V58.49C59.48 57.76 60.07 57.17 60.79 57.17ZM39.08 57.17H50.42C51.14 57.17 51.73 57.76 51.73 58.48V66.86C51.73 67.58 51.14 68.17 50.42 68.17H39.08C38.36 68.17 37.77 67.58 37.77 66.86V58.48C37.77 57.76 38.36 57.17 39.08 57.17ZM17.37 57.17H28.71C29.43 57.17 30.02 57.76 30.02 58.48V66.86C30.02 67.58 29.43 68.17 28.71 68.17H17.37C16.65 68.17 16.06 67.58 16.06 66.86V58.48C16.06 57.76 16.65 57.17 17.37 57.17ZM39.08 81.05H50.42C51.14 81.05 51.73 81.64 51.73 82.36V90.74C51.73 91.46 51.14 92.05 50.42 92.05H39.08C38.36 92.05 37.77 91.46 37.77 90.74V82.36C37.77 81.63 38.36 81.05 39.08 81.05ZM106.49 62.54C118.2 67.39 125.88 78.82 125.88 91.56C125.88 100.23 122.36 108.09 116.68 113.77C111 119.45 103.15 122.97 94.47 122.97C85.8 122.97 77.95 119.45 72.26 113.77C66.58 108.08 63.06 100.23 63.06 91.56C63.06 78.92 70.92 67.13 82.61 62.33C89.86 59.37 99.29 59.55 106.49 62.54ZM89.64 90.72C90.03 90.29 90.51 89.92 91.03 89.64V75.98C91.03 74.59 92.16 73.46 93.55 73.46C94.94 73.46 96.08 74.59 96.08 75.98V89.64C97 90.14 97.76 90.89 98.25 91.81H108.01C109.41 91.81 110.53 92.94 110.53 94.33C110.53 95.72 109.4 96.85 108.01 96.85H98.25C97.35 98.53 95.59 99.67 93.55 99.67C91.95 99.67 90.52 98.96 89.54 97.85C87.73 95.78 87.82 92.69 89.64 90.72ZM113.12 73.41C100.11 60.4 78.17 64.08 70.56 80.46C69 83.83 68.12 87.59 68.12 91.55C68.12 98.83 71.07 105.42 75.84 110.19C80.61 114.96 87.2 117.91 94.48 117.91C101.76 117.91 108.35 114.95 113.12 110.19C117.89 105.42 120.84 98.83 120.84 91.55C120.84 87.42 119.89 83.51 118.2 80.03C116.91 77.4 115.19 75.48 113.12 73.41ZM28.33 7.06C28.33 4.83 30.53 3 33.28 3C36.02 3 38.23 4.81 38.23 7.06V24.8C38.23 27.03 36.02 28.86 33.28 28.86C30.54 28.86 28.33 27.05 28.33 24.8V7.06ZM8.45 41.79H102.66V21.37C102.66 20.67 102.38 20.06 101.93 19.61C101.48 19.16 100.84 18.88 100.17 18.88H91.14C89.63 18.88 88.4 17.65 88.4 16.14C88.4 14.63 89.63 13.4 91.14 13.4H100.17C102.38 13.4 104.37 14.29 105.82 15.74C107.27 17.19 108.16 19.18 108.16 21.39V53.82C106.36 53.2 104.51 52.7 102.6 52.33V47.26H102.66H8.45V100.17C8.45 100.87 8.73 101.48 9.18 101.93C9.63 102.38 10.27 102.66 10.94 102.66H55.71C56.22 104.56 56.86 106.42 57.63 108.2H10.99C8.79 108.2 6.79 107.31 5.34 105.86C3.89 104.4 3 102.42 3 100.21V21.39C3 19.19 3.89 17.2 5.34 15.74C6.79 14.29 8.78 13.4 10.99 13.4H20.63C22.14 13.4 23.37 14.63 23.37 16.14C23.37 17.65 22.14 18.88 20.63 18.88H10.99C10.29 18.88 9.68 19.16 9.23 19.61C8.78 20.06 8.5 20.7 8.5 21.37V41.8H8.45V41.79ZM46.13 18.87C44.62 18.87 43.39 17.64 43.39 16.13C43.39 14.62 44.62 13.39 46.13 13.39H64.52C66.03 13.39 67.26 14.62 67.26 16.13C67.26 17.64 66.03 18.87 64.52 18.87H46.13Z" fill="black"/>
<path d="M125.88 91.5596C125.88 79.0189 118.438 67.7478 107.036 62.7725L106.49 62.54C99.2903 59.5501 89.8603 59.3702 82.6104 62.3301C70.9205 67.13 63.0597 78.9197 63.0596 91.5596C63.0596 100.229 66.58 108.08 72.2598 113.77C77.9497 119.449 85.7998 122.97 94.4697 122.97C103.15 122.97 111 119.45 116.68 113.77C122.36 108.09 125.88 100.23 125.88 91.5596ZM119.84 91.5498C119.84 87.5758 118.926 83.816 117.302 80.4697C116.086 77.9919 114.462 76.1663 112.413 74.1172C99.8777 61.5818 78.7748 65.1524 71.4668 80.8789L71.4678 80.8799C69.9669 84.1221 69.1201 87.7393 69.1201 91.5498C69.1201 98.5538 71.957 104.892 76.5469 109.482C81.137 114.073 87.4763 116.91 94.4805 116.91V117.91L93.7998 117.901C87.0163 117.73 80.8705 114.996 76.293 110.632L75.8398 110.19C71.2189 105.569 68.3065 99.2401 68.1289 92.2305L68.1201 91.5498C68.1201 87.5899 68.9996 83.8299 70.5596 80.46C78.1696 64.08 100.11 60.4002 113.12 73.4102C115.19 75.4801 116.91 77.4003 118.2 80.0303C119.89 83.5101 120.84 87.42 120.84 91.5498C120.84 98.8298 117.89 105.42 113.12 110.19C108.35 114.95 101.76 117.91 94.4805 117.91V116.91C101.483 116.91 107.822 114.064 112.413 109.482L112.838 109.048C117.178 104.496 119.84 98.3353 119.84 91.5498ZM2 100.21V21.3896C2.00009 18.9129 3.00413 16.6731 4.63086 15.0352L4.63281 15.0332C6.26285 13.4032 8.5046 12.4004 10.9902 12.4004V13.4004L10.5781 13.4102C8.53326 13.5133 6.69919 14.3809 5.33984 15.7402C3.89004 17.2001 3.00009 19.1899 3 21.3896V100.21C3 102.42 3.88984 104.4 5.33984 105.86C6.69924 107.22 8.54229 108.086 10.5801 108.189L10.9902 108.2H57.6299C56.8599 106.42 56.22 104.56 55.71 102.66H10.9404V101.66H56.4766L56.6758 102.4C57.1739 104.256 57.7984 106.07 58.5479 107.803L59.1523 109.2H10.9902C8.51531 109.2 6.26333 108.198 4.63281 106.567L4.63086 106.564C3.10609 105.029 2.12789 102.974 2.01172 100.673L2 100.21ZM8.4502 100.17V47.2598H102.6V52.3301C104.51 52.7001 106.36 53.2003 108.16 53.8203V21.3896C108.16 19.318 107.377 17.4399 106.085 16.0186L105.82 15.7402C104.461 14.3809 102.627 13.5133 100.582 13.4102L100.17 13.4004V12.4004C102.656 12.4004 104.897 13.4032 106.527 15.0332C108.157 16.6631 109.16 18.9043 109.16 21.3896V55.2217L107.834 54.7656C106.077 54.1606 104.273 53.6724 102.41 53.3115L101.6 53.1553V48.2598H9.4502V100.17C9.4502 100.59 9.61395 100.95 9.88672 101.223C10.155 101.491 10.5437 101.66 10.9404 101.66V102.66L10.6904 102.647C10.1129 102.588 9.57344 102.323 9.17969 101.93C8.78602 101.536 8.52254 101.02 8.46289 100.428L8.4502 100.17ZM15.0596 90.7402V82.3604C15.0596 81.0731 16.1028 80.0498 17.3701 80.0498V81.0498L17.2363 81.0566C16.5784 81.1232 16.0596 81.6761 16.0596 82.3604V90.7402L16.0664 90.873C16.1292 91.4873 16.6222 91.9799 17.2363 92.043L17.3701 92.0498H28.71C29.3851 92.0498 29.9464 91.5313 30.0137 90.873L30.0195 90.7402V82.3604C30.0195 81.6404 29.43 81.0498 28.71 81.0498V80.0498C29.9822 80.0498 31.0195 81.0881 31.0195 82.3604V90.7402C31.0194 92.0124 29.9822 93.0498 28.71 93.0498H17.3701C16.0979 93.0498 15.0597 92.0124 15.0596 90.7402ZM36.7695 90.7402V82.3604C36.7695 81.0731 37.8128 80.0498 39.0801 80.0498V81.0498L38.9463 81.0566C38.2884 81.1232 37.7695 81.6761 37.7695 82.3604V90.7402L37.7764 90.873C37.8392 91.4873 38.3321 91.9798 38.9463 92.043L39.0801 92.0498H50.4199C51.095 92.0498 51.6563 91.5313 51.7236 90.873L51.7305 90.7402V82.3604C51.7305 81.6404 51.1399 81.0498 50.4199 81.0498V80.0498C51.6922 80.0498 52.7305 81.0881 52.7305 82.3604V90.7402C52.7303 92.0124 51.6921 93.0498 50.4199 93.0498H39.0801C37.8079 93.0498 36.7697 92.0124 36.7695 90.7402ZM96.0801 75.9805C96.0801 74.5905 94.9398 73.46 93.5498 73.46C92.1599 73.4601 91.0303 74.5905 91.0303 75.9805V89.6396C90.5103 89.9196 90.0296 90.2897 89.6396 90.7197C87.8197 92.6897 87.7302 95.7796 89.54 97.8496C90.52 98.9596 91.9499 99.6699 93.5498 99.6699C95.5898 99.6699 97.35 98.5296 98.25 96.8496H108.01C109.313 96.8496 110.388 95.8566 110.517 94.5869L110.53 94.3301C110.53 92.9401 109.41 91.8096 108.01 91.8096V90.8096C109.965 90.8096 111.53 92.3904 111.53 94.3301C111.53 96.2723 109.952 97.8496 108.01 97.8496H98.8105C97.6768 99.5474 95.7528 100.67 93.5498 100.67C91.6464 100.67 89.9485 99.8238 88.79 98.5117L88.7871 98.5078C86.6351 96.0464 86.7445 92.3799 88.9053 90.041C89.2368 89.6767 89.6191 89.3527 90.0303 89.0771V75.9805C90.0303 74.0383 91.6076 72.4601 93.5498 72.46C95.4869 72.46 97.0801 74.033 97.0801 75.9805V89.0781C97.7627 89.5367 98.3536 90.1229 98.8135 90.8096H108.01V91.8096H98.25C97.76 90.8897 97 90.1396 96.0801 89.6396V75.9805ZM50.4199 80.0498V81.0498H39.0801V80.0498H50.4199ZM28.71 80.0498V81.0498H17.3701V80.0498H28.71ZM72.1299 56.1699C72.7591 56.1699 73.3042 56.4246 73.7061 56.793L74.6748 57.6816L73.5596 58.3779C69.2201 61.0889 65.456 64.6198 62.4717 68.7646L62.1719 69.1797H60.79C59.5178 69.1797 58.4805 68.1423 58.4805 66.8701V58.4902C58.4805 57.2129 59.5128 56.1699 60.79 56.1699V57.1699L60.6562 57.1768C59.9983 57.2444 59.4805 57.806 59.4805 58.4902V66.8701L59.4863 67.0029C59.5491 67.6172 60.0421 68.1097 60.6562 68.1729L60.79 68.1797H61.6602L62.2432 67.3906C65.2049 63.4808 68.8584 60.1365 73.0303 57.5303C72.7903 57.3103 72.4799 57.1699 72.1299 57.1699H60.79V56.1699H72.1299ZM15.0596 66.8604V58.4805C15.0596 57.2082 16.0978 56.1699 17.3701 56.1699V57.1699L17.2363 57.1768C16.5784 57.2444 16.0596 57.8056 16.0596 58.4805V66.8604L16.0664 66.9932C16.1293 67.6074 16.6222 68.1 17.2363 68.1631L17.3701 68.1699H28.71C29.385 68.1699 29.9463 67.6514 30.0137 66.9932L30.0195 66.8604V58.4805C30.0195 57.7605 29.43 57.1699 28.71 57.1699V56.1699C29.9822 56.1699 31.0195 57.2082 31.0195 58.4805V66.8604C31.0193 68.1325 29.9821 69.1699 28.71 69.1699H17.3701C16.098 69.1699 15.0598 68.1325 15.0596 66.8604ZM36.7695 66.8604V58.4805C36.7695 57.2082 37.8078 56.1699 39.0801 56.1699V57.1699L38.9463 57.1768C38.2884 57.2444 37.7695 57.8056 37.7695 58.4805V66.8604L37.7764 66.9932C37.8392 67.6074 38.3322 68.1 38.9463 68.1631L39.0801 68.1699H50.4199C51.095 68.1699 51.6563 67.6514 51.7236 66.9932L51.7305 66.8604V58.4805C51.7305 57.7605 51.1399 57.1699 50.4199 57.1699V56.1699C51.6922 56.1699 52.7305 57.2082 52.7305 58.4805V66.8604C52.7303 68.1325 51.6921 69.1699 50.4199 69.1699H39.0801C37.8079 69.1699 36.7697 68.1325 36.7695 66.8604ZM50.4199 56.1699V57.1699H39.0801V56.1699H50.4199ZM28.71 56.1699V57.1699H17.3701V56.1699H28.71ZM8.5 21.3701C8.5 20.7838 8.71423 20.2202 9.06934 19.7871L9.23047 19.6104C9.62413 19.2167 10.1398 18.9524 10.7314 18.8926L10.9902 18.8799H20.6299C22.0454 18.8799 23.2146 17.7991 23.3555 16.4199L23.3701 16.1396C23.3699 14.724 22.2886 13.5545 20.9092 13.4141L20.6299 13.4004V12.4004C22.692 12.4004 24.3699 14.0775 24.3701 16.1396C24.3701 18.2019 22.6922 19.8799 20.6299 19.8799H10.9902C10.57 19.8799 10.2104 20.0445 9.9375 20.3174C9.66924 20.5856 9.5 20.9734 9.5 21.3701V40.79H101.66V21.3701C101.66 20.9498 101.496 20.5903 101.223 20.3174C100.954 20.0491 100.567 19.8799 100.17 19.8799H91.1396C89.0775 19.8797 87.4004 18.2018 87.4004 16.1396C87.4006 14.0776 89.0776 12.4006 91.1396 12.4004V13.4004L90.8604 13.4141C89.4811 13.5547 88.4006 14.7242 88.4004 16.1396L88.4141 16.4199C88.5548 17.799 89.7243 18.8797 91.1396 18.8799H100.17C100.84 18.8799 101.48 19.1604 101.93 19.6104C102.38 20.0603 102.66 20.6701 102.66 21.3701V41.79H8.5V21.3701ZM38.2305 7.05957C38.2302 4.88004 36.1557 3.11312 33.5352 3.00488L33.2803 3C30.5305 3 28.3304 4.82976 28.3301 7.05957V24.7998L28.3359 25.0098C28.464 27.092 30.4885 28.7496 33.0244 28.8545L33.2803 28.8604C35.9345 28.8602 38.0914 27.1425 38.2236 25.0078L38.2305 24.7998V7.05957ZM82.6602 7.05957C82.6599 4.80977 80.4598 3 77.71 3C74.9602 3.00002 72.76 4.82978 72.7598 7.05957V24.7998C72.7598 26.9796 74.8248 28.7463 77.4541 28.8545L77.71 28.8604C80.374 28.8604 82.5217 27.1426 82.6533 25.0078L82.6602 24.7998V7.05957ZM42.3896 16.1299C42.3897 14.0677 44.0677 12.3897 46.1299 12.3896V13.3896C44.62 13.3897 43.3897 14.62 43.3896 16.1299C43.3896 17.5456 44.4712 18.7149 45.8506 18.8555L46.1299 18.8701H64.5195L64.7998 18.8555C66.179 18.7147 67.2598 17.5454 67.2598 16.1299C67.2597 14.6199 66.0295 13.3896 64.5195 13.3896V12.3896C66.5818 12.3896 68.2597 14.0677 68.2598 16.1299C68.2598 18.1922 66.5818 19.8701 64.5195 19.8701H46.1299C44.0677 19.8701 42.3896 18.1921 42.3896 16.1299ZM100.17 12.4004V13.4004H91.1396V12.4004H100.17ZM20.6299 12.4004V13.4004H10.9902V12.4004H20.6299ZM64.5195 12.3896V13.3896H46.1299V12.3896H64.5195ZM126.88 91.5596C126.88 100.505 123.247 108.618 117.387 114.478C111.527 120.337 103.426 123.97 94.4697 123.97C85.5234 123.97 77.4228 120.336 71.5537 114.478L71.5527 114.477C65.6939 108.607 62.0596 100.506 62.0596 91.5596C62.0597 78.5166 70.1632 66.3602 82.2305 61.4053L82.2324 61.4043C89.7379 58.3401 99.4413 58.5302 106.873 61.6162L107.436 61.8555C119.201 66.989 126.88 78.6194 126.88 91.5596ZM39.2305 24.7998C39.2305 27.7558 36.3809 29.8602 33.2803 29.8604C30.1829 29.8604 27.3301 27.7787 27.3301 24.7998V7.05957C27.3304 4.1049 30.1682 2 33.2803 2C36.3774 2.00012 39.2302 4.081 39.2305 7.05957V24.7998ZM83.6602 24.7998C83.6602 27.7547 80.8221 29.8604 77.71 29.8604C74.6012 29.8603 71.7598 27.7775 71.7598 24.7998V7.05957C71.76 4.10491 74.5979 2.00002 77.71 2C80.8186 2 83.6599 4.08207 83.6602 7.05957V24.7998Z" fill="black"/>
</svg>
