<!-- Generated by IcoMoon.io -->
<svg version="1.1" xmlns="http://www.w3.org/2000/svg" width="1024" height="1024" viewBox="0 0 1024 1024">
<g id="icomoon-ignore">
</g>
<path fill="#ffd900" d="M947.213 337.841l-275.341-23.492-107.519-248.901c-19.343-45.305-85.334-45.305-104.676 0l-107.52 249.46-274.773 22.932c-50.062 3.915-70.542 65.441-32.427 97.882l208.782 177.866-62.578 264.004c-11.377 48.102 41.529 86.138 84.765 60.403l236.089-139.827 236.088 140.39c43.238 25.728 96.141-12.307 84.768-60.41l-62.579-264.561 208.781-177.866c38.118-32.441 18.208-93.967-31.859-97.882zM512.015 693.574l-213.902 126.963 56.888-239.389-188.871-161.087 249.174-21.254 96.711-225.409 97.28 225.968 249.176 21.254-188.87 161.087 56.883 239.393-214.468-127.526z"></path>
</svg>
