<svg viewBox="0 0 24 24" xmlns="http://www.w3.org/2000/svg">
  <path d="M3 12C3 11.4477 3.44772 11 4 11C4.55228 11 5 11.4477 5 12V21H19V12C19 11.4477 19.4477 11 20 11C20.5523 11 21 11.4477 21 12V22C21 22.5523 20.5523 23 20 23H4C3.44772 23 3 22.5523 3 22V12Z" fill="currentColor"/>
  <path d="M22 6C22.5523 6 23 6.44772 23 7V12C23 12.5523 22.5523 13 22 13H2C1.44772 13 1 12.5523 1 12V7C1 6.44772 1.44772 6 2 6H22ZM3 11H21V8H3V11Z" fill="currentColor"/>
  <path d="M11 22V7C11 6.44772 11.4477 6 12 6C12.5523 6 13 6.44772 13 7V22C13 22.5523 12.5523 23 12 23C11.4477 23 11 22.5523 11 22Z" fill="currentColor"/>
  <path d="M7.5 1C9.8061 1 11.1924 2.66213 11.9385 4.01855C12.323 4.71773 12.5809 5.40751 12.7422 5.91699C12.8234 6.17354 12.8815 6.38913 12.9199 6.54297C12.9391 6.61973 12.954 6.68134 12.9639 6.72559C12.9688 6.74775 12.9728 6.7662 12.9756 6.7793C12.9769 6.78559 12.9777 6.79086 12.9785 6.79492C12.9789 6.79701 12.9792 6.7993 12.9795 6.80078L12.9805 6.80273C12.9805 6.8031 12.9806 6.80388 12 7L12.9805 6.80371C13.0392 7.09742 12.9633 7.40212 12.7734 7.63379C12.5835 7.86548 12.2996 8 12 8H7.5C6.57174 8 5.68177 7.63099 5.02539 6.97461C4.4101 6.35932 4.04688 5.5388 4.00391 4.67383L4 4.5C4 3.57174 4.36901 2.68177 5.02539 2.02539C5.68177 1.36901 6.57174 1 7.5 1ZM6.00781 4.64844C6.04195 4.99174 6.19337 5.31446 6.43945 5.56055C6.72076 5.84185 7.10218 6 7.5 6H10.6523C10.5303 5.68076 10.3775 5.32874 10.1865 4.98145C9.55757 3.838 8.69381 3 7.5 3C7.10218 3 6.72076 3.15815 6.43945 3.43945C6.15815 3.72076 6 4.10218 6 4.5L6.00781 4.64844Z" fill="currentColor"/>
  <path d="M17.9999 4.5C17.9999 4.10218 17.8418 3.72076 17.5605 3.43945C17.2791 3.15815 16.8977 3 16.4999 3C15.3061 3 14.4423 3.838 13.8134 4.98145C13.6224 5.32874 13.4696 5.68076 13.3476 6H16.4999C16.8977 6 17.2791 5.84185 17.5605 5.56055C17.8418 5.27924 17.9999 4.89782 17.9999 4.5ZM19.9999 4.5C19.9999 5.42826 19.6309 6.31823 18.9745 6.97461C18.3592 7.5899 17.5387 7.95312 16.6737 7.99609L16.4999 8H11.9999C11.7003 8 11.4164 7.86548 11.2265 7.63379C11.0366 7.40212 10.9607 7.09742 11.0194 6.80371L11.9999 7L11.0194 6.80273L11.0204 6.80078C11.0207 6.7993 11.021 6.79701 11.0214 6.79492C11.0222 6.79086 11.023 6.78559 11.0243 6.7793C11.0271 6.7662 11.0311 6.74775 11.036 6.72559C11.0459 6.68134 11.0608 6.61973 11.08 6.54297C11.1184 6.38913 11.1765 6.17354 11.2577 5.91699C11.4191 5.40751 11.6769 4.71773 12.0614 4.01855C12.8075 2.66213 14.1938 1 16.4999 1C17.4282 1 18.3181 1.36901 18.9745 2.02539C19.6309 2.68177 19.9999 3.57174 19.9999 4.5Z" fill="currentColor"/>
</svg>
