<!-- Generated by IcoMoon.io -->
<svg version="1.1" xmlns="http://www.w3.org/2000/svg" width="1024" height="1024" viewBox="0 0 1024 1024">
<g id="icomoon-ignore">
</g>
<path fill="#000" d="M921.6 153.6c28.278 0 51.2 22.923 51.2 51.2s-22.922 51.2-51.2 51.2h-819.2c-28.277 0-51.2-22.923-51.2-51.2s22.923-51.2 51.2-51.2h819.2z"></path>
<path fill="#000" d="M921.6 460.8c28.278 0 51.2 22.923 51.2 51.2s-22.922 51.2-51.2 51.2h-819.2c-28.277 0-51.2-22.922-51.2-51.2 0-28.277 22.923-51.2 51.2-51.2h819.2z"></path>
<path fill="#000" d="M938.665 768c18.852 0 34.135 22.922 34.135 51.2s-15.283 51.2-34.135 51.2h-546.131c-18.851 0-34.134-22.922-34.134-51.2s15.282-51.2 34.134-51.2h546.131z"></path>
</svg>
