<!-- Generated by IcoMoon.io -->
<svg version="1.1" xmlns="http://www.w3.org/2000/svg" width="1024" height="1024" viewBox="0 0 1024 1024">
<g id="icomoon-ignore">
</g>
<path fill="#000" d="M942.545 232.727c0-31.92-26.261-58.182-58.182-58.182h-744.727c-31.92 0-58.182 26.261-58.182 58.182v558.545c0 31.921 26.261 58.182 58.182 58.182h744.727c31.921 0 58.182-26.261 58.182-58.182v-558.545zM1012.364 791.273c0 70.479-57.521 128-128 128h-744.727c-70.48 0-128-57.521-128-128v-558.545c0-70.48 57.52-128 128-128h744.727c70.479 0 128 57.52 128 128v558.545z"></path>
<path fill="#000" d="M957.463 204.147c15.793-11.048 37.539-7.201 48.593 8.591 11.045 15.794 7.201 37.537-8.592 48.591l-465.455 325.82c-12.018 8.406-27.983 8.406-40.001 0l-465.453-325.82c-15.792-11.054-19.639-32.797-8.591-48.591 11.054-15.791 32.797-19.639 48.591-8.591l445.454 311.819 445.454-311.819z"></path>
</svg>
