<svg width="22" height="22" viewBox="0 0 22 22" fill="none" xmlns="http://www.w3.org/2000/svg">
<path d="M18 20V18C18 17.2044 17.6837 16.4415 17.1211 15.8789C16.6289 15.3867 15.9835 15.0829 15.2969 15.0146L15 15H7C6.20435 15 5.44152 15.3163 4.87891 15.8789C4.3163 16.4415 4 17.2044 4 18V20C4 20.5523 3.55228 21 3 21C2.44772 21 2 20.5523 2 20V18C2 16.6739 2.52716 15.4025 3.46484 14.4648C4.40253 13.5272 5.67392 13 7 13H15C16.3261 13 17.5975 13.5272 18.5352 14.4648C19.4728 15.4025 20 16.6739 20 18V20C20 20.5523 19.5523 21 19 21C18.4477 21 18 20.5523 18 20Z" fill="black"/>
<path d="M14 6C14 4.34315 12.6569 3 11 3C9.34315 3 8 4.34315 8 6C8 7.65685 9.34315 9 11 9C12.6569 9 14 7.65685 14 6ZM16 6C16 8.76142 13.7614 11 11 11C8.23858 11 6 8.76142 6 6C6 3.23858 8.23858 1 11 1C13.7614 1 16 3.23858 16 6Z" fill="black"/>
</svg>
