<!-- Generated by IcoMoon.io -->
<svg version="1.1" xmlns="http://www.w3.org/2000/svg" width="1024" height="1024" viewBox="0 0 1024 1024">
<g id="icomoon-ignore">
</g>
<path fill="#000" d="M303.377 50.442c29.047-0.198 57.197 10.101 79.227 29.046 19.356 16.646 32.832 38.966 38.636 63.636l2 10.727 0.045 0.318c5.059 38.347 14.478 75.988 28 112.227h-0.046c8.069 21.5 9.834 44.858 5.046 67.318-4.793 22.475-15.936 43.111-32.091 59.454l-35.091 35.091c52.23 83.707 122.887 154.354 206.589 206.592l35.137-35.044c16.342-16.156 36.98-27.299 59.457-32.093 22.44-4.785 45.787-3.053 67.272 4.999 31.716 11.837 64.549 20.494 97.955 25.865l14.634 2.183c29.207 4.119 55.887 18.814 74.957 41.318 18.879 22.286 28.97 50.674 28.453 79.863v127.818c0.070 16.742-3.337 33.341-10.045 48.682s-16.575 29.091-28.909 40.406c-12.339 11.32-26.913 19.954-42.775 25.321-15.853 5.357-32.647 7.368-49.315 5.865l-0.638-0.047v-0.047c-136.718-14.857-268.069-61.538-383.454-136.364v-0.047c-107.286-68.236-198.262-159.227-266.455-266.543v-0.047c-74.977-115.84-121.656-247.69-136.227-384.909l-0.046-0.546c-1.501-16.618 0.45-33.368 5.773-49.182 5.328-15.819 13.928-30.353 25.182-42.682 11.251-12.325 24.918-22.21 40.182-28.955 15.27-6.745 31.807-10.212 48.5-10.227h128.045zM170.15 120.533c-5.196 0.548-10.292 1.88-15.091 4-6.403 2.828-12.145 6.967-16.864 12.136s-8.311 11.275-10.545 17.909c-2.233 6.633-3.039 13.666-2.409 20.636h-0.045c12.647 118.331 51.225 232.332 112.863 333.908l12.682 20.182 0.182 0.228c58.84 92.598 136.094 171.999 226.909 233.272l18.59 12.181c106.147 68.836 226.965 111.793 352.726 125.501 6.875 0.573 13.787-0.247 20.322-2.453 6.647-2.248 12.781-5.846 17.953-10.594 5.171-4.738 9.277-10.529 12.093-16.952 2.811-6.428 4.254-13.391 4.226-20.41v-128.135c0-0.284 0.037-0.582 0.047-0.866 0.307-12.362-3.961-24.427-11.958-33.862-7.987-9.43-19.167-15.588-31.409-17.32v-0.047c-43.464-5.753-86.146-16.351-127.227-31.679l-0.088-0.047c-9.025-3.393-18.846-4.147-28.272-2.136-9.43 2.011-18.055 6.721-24.911 13.498l-0.047-0.042-53.997 54.090c-11.11 11.11-28.295 13.4-41.956 5.637-112.282-63.846-205.246-156.812-269.090-269.093-7.767-13.66-5.476-30.843 5.636-41.954l54.045-54.045c6.777-6.853 11.488-15.483 13.5-24.909 2.011-9.429 1.256-19.249-2.136-28.273l-0.045-0.091c-15.322-41.066-25.971-83.731-31.727-127.182l-0.818-4.5c-2.433-10.349-8.108-19.699-16.227-26.682-9.277-7.975-21.131-12.302-33.364-12.182h-128.318l-5.227 0.273zM607.879 206.67c3.691-18.923 22.030-31.283 40.951-27.591 48.491 9.464 93.068 33.159 128 68.091s58.629 79.513 68.091 128c3.691 18.923-8.667 37.263-27.587 40.955-18.921 3.682-37.222-8.673-40.913-27.591-6.8-34.848-23.892-66.848-48.998-91.954s-57.107-42.198-91.955-49c-18.916-3.691-31.274-21.992-27.587-40.909zM645.967 7.988c94.455 10.493 182.533 52.797 249.772 119.955 67.24 67.154 109.661 155.156 120.273 249.591 2.155 19.155-11.618 36.432-30.771 38.591-17.971 2.019-34.313-9.969-38.046-27.273l-0.545-3.5-1.955-14.682c-11.371-73.119-45.736-140.891-98.271-193.363-56.036-55.958-129.434-91.209-208.137-99.955l3.863-34.682 3.817-34.682zM645.967 7.988l-7.68 69.364c-19.163-2.129-32.991-19.384-30.864-38.546 2.132-19.153 19.391-32.938 38.544-30.818z"></path>
</svg>
