<svg width="22" height="22" viewBox="0 0 22 22" fill="none" xmlns="http://www.w3.org/2000/svg">
<path d="M11.4549 1.01688C12.5847 1 13.7081 1.01 14.8301 1C14.8981 2.27568 15.3733 3.57512 16.3406 4.47708C17.306 5.40148 18.6714 5.82464 20 5.96776V9.32356C18.7549 9.2842 17.5041 9.03416 16.3743 8.51664C15.8822 8.30164 15.4238 8.02476 14.9751 7.7416C14.9693 10.1767 14.9855 12.6088 14.9589 15.0339C14.8916 16.1989 14.4934 17.3584 13.7916 18.3184C12.6624 19.9166 10.7026 20.9585 8.68964 20.9911C7.45497 21.0592 6.22154 20.7342 5.16947 20.1354C3.42585 19.1428 2.19893 17.3259 2.02022 15.3758C1.9995 14.9589 1.99242 14.5426 2.00986 14.1357C2.16528 12.55 2.97782 11.033 4.23905 10.0011C5.66863 8.79916 7.67122 8.22664 9.54622 8.5654C9.56371 9.79984 9.51258 11.033 9.51258 12.2675C8.656 12 7.65502 12.075 6.90658 12.5769C6.3601 12.9188 5.94509 13.4425 5.72884 14.0351C5.55017 14.4576 5.6013 14.927 5.61166 15.3758C5.81689 16.7433 7.17914 17.8928 8.63333 17.7684C9.59739 17.7584 10.5213 17.2184 11.0237 16.4277C11.1862 16.1508 11.3681 15.8677 11.3779 15.542C11.4627 14.0513 11.429 12.5669 11.4394 11.0762C11.4465 7.7166 11.429 4.36644 11.4556 1.01752L11.4549 1.01688Z" fill="black"/>
</svg>
