<!-- Generated by IcoMoon.io -->
<svg version="1.1" xmlns="http://www.w3.org/2000/svg" width="1024" height="1024" viewBox="0 0 1024 1024">
<g id="icomoon-ignore">
</g>
<path fill="#000" d="M867.584 960v-99.541c0-41.489-16.499-81.289-45.833-110.626-29.342-29.338-69.133-45.833-110.626-45.833h-398.209c-41.492 0-81.286 16.495-110.625 45.833-29.339 29.342-45.833 69.133-45.833 110.626v99.541c0 23.565-19.102 42.667-42.667 42.667s-42.667-19.102-42.667-42.667v-99.541c0-64.124 25.491-125.615 70.833-170.957s106.835-70.835 170.958-70.835h398.209c64.124 0 125.615 25.493 170.957 70.835 45.338 45.338 70.835 106.837 70.835 170.957v99.541c0 23.561-19.11 42.658-42.667 42.667-23.565 0-42.667-19.102-42.667-42.667z"></path>
<path fill="#000" d="M668.416 263.125c0-86.397-70.020-156.451-156.416-156.458-86.402 0-156.458 70.057-156.458 156.458 0.007 86.396 70.061 156.417 156.458 156.417 86.391-0.008 156.407-70.026 156.416-156.417zM753.749 263.125c-0.009 133.519-108.228 241.741-241.749 241.75-133.526 0-241.784-108.226-241.792-241.75 0-133.53 108.262-241.792 241.792-241.792 133.525 0.008 241.749 108.266 241.749 241.792z"></path>
</svg>
