<!-- Generated by IcoMoon.io -->
<svg version="1.1" xmlns="http://www.w3.org/2000/svg" width="1024" height="1024" viewBox="0 0 1024 1024">
<g id="icomoon-ignore">
</g>
<path fill="#000" d="M864 413.99c0-9.498-4.205-18.545-11.501-24.625l-319.999-266.625c-11.866-9.889-29.133-9.889-41 0l-320 266.625c-7.296 6.080-11.5 15.128-11.5 24.625v482.003c0 17.67 14.327 32 32 32h128c17.673 0 32-14.33 32-32v-224c0.002-53.021 42.982-96.003 96-96.003h128c53.018 0 96 42.982 96 96.003v224c0 17.67 14.323 32 32 32h128c17.677 0 32-14.33 32-32v-482.003zM928 895.994c0 53.018-42.982 96-96 96h-128c-53.018 0-96-42.982-96-96v-224c-0.002-17.677-14.328-32.003-32-32.003h-128c-17.672 0-31.998 14.326-32 32.003v224c0 53.018-42.981 96-96 96h-128c-53.019 0-96-42.982-96-96v-482.003c0-28.49 12.675-55.51 34.563-73.75l320-266.687c35.596-29.654 87.279-29.654 122.875 0l320.003 266.687c21.888 18.241 34.56 45.261 34.56 73.75v482.003z"></path>
</svg>
