<svg width="32" height="32" viewBox="0 0 32 32" fill="none" xmlns="http://www.w3.org/2000/svg">
<path d="M19 11C19.5523 11 20 11.4477 20 12C20 12.5523 19.5523 13 19 13H10C9.44772 13 9 12.5523 9 12C9 11.4477 9.44772 11 10 11H19Z" fill="black"/>
<path d="M14 15C14.5523 15 15 15.4477 15 16C15 16.5523 14.5523 17 14 17H10C9.44772 17 9 16.5523 9 16C9 15.4477 9.44772 15 10 15H14Z" fill="black"/>
<path d="M28 16V12C28 8.15228 24.8477 5 21 5H11C7.15228 5 4 8.15228 4 12V26.9473C7.58049 24.408 11.8595 23 16.2998 23H21C24.8477 23 28 19.8477 28 16ZM30 16C30 20.9523 25.9523 25 21 25H16.2998C11.6467 25 7.1776 26.7097 3.6543 29.7568C3.35832 30.0127 2.93982 30.0719 2.58398 29.9092C2.22823 29.7464 2 29.3912 2 29V12C2 7.04772 6.04772 3 11 3H21C25.9523 3 30 7.04772 30 12V16Z" fill="black"/>
</svg>
