<!-- Generated by IcoMoon.io -->
<svg version="1.1" xmlns="http://www.w3.org/2000/svg" width="1024" height="1024" viewBox="0 0 1024 1024">
<g id="icomoon-ignore">
</g>
<path fill="#000" d="M225.83 215.163c16.663-16.662 43.671-16.662 60.334 0l512.002 512c16.661 16.661 16.661 43.669 0 60.335-16.666 16.661-43.674 16.661-60.335 0l-512-512.002c-16.662-16.663-16.662-43.671 0-60.334z"></path>
<path fill="#000" d="M798.17 215.163c16.661 16.663 16.661 43.671 0 60.334l-512 512.002c-16.663 16.661-43.671 16.661-60.334 0-16.662-16.666-16.662-43.674 0-60.335l511.998-512c16.666-16.662 43.674-16.662 60.335 0z"></path>
</svg>
