<svg viewBox="0 0 22 22" xmlns="http://www.w3.org/2000/svg">
  <path d="M14.2547 0.257782C14.4299 0.254569 14.6052 0.251357 14.7858 0.248047C14.9524 0.249487 15.119 0.250927 15.2906 0.252411C15.4406 0.253186 15.5906 0.253962 15.7451 0.254761C16.3022 0.375364 16.5048 0.577823 16.8435 1.03122C16.9298 1.46124 16.9298 1.46124 16.9288 1.93893C16.9289 2.11197 16.929 2.28501 16.9292 2.46329C16.9257 2.64297 16.9223 2.82265 16.9187 3.00778C16.92 3.18747 16.9212 3.36715 16.9224 3.55228C16.9098 5.06468 16.9098 5.06468 16.3279 5.67184C15.7866 5.85227 15.4018 5.86113 14.8348 5.85446C14.6639 5.85291 14.4931 5.85136 14.3171 5.84976C14.1214 5.84677 14.1214 5.84677 13.9217 5.84372C13.9217 6.35419 13.9217 6.86466 13.9217 7.39059C14.0854 7.38461 14.2491 7.37863 14.4178 7.37247C14.6334 7.36781 14.849 7.36316 15.0711 7.35837C15.2844 7.35239 15.4978 7.3464 15.7176 7.34024C16.373 7.39431 16.6781 7.49792 17.1873 7.90622C17.5165 8.34166 17.5327 8.55733 17.5076 9.10733C17.0903 11.6257 17.0903 11.6257 16.3279 12.3642C15.7828 12.5573 15.4091 12.5654 14.8348 12.5583C14.6639 12.5566 14.4931 12.555 14.3171 12.5533C14.1866 12.5511 14.0561 12.549 13.9217 12.5468C13.9232 12.6483 13.9247 12.7497 13.9263 12.8543C13.9415 13.911 13.9519 14.9676 13.9594 16.0244C13.9629 16.4187 13.9676 16.813 13.9735 17.2072C13.9819 17.7743 13.9858 18.3412 13.9888 18.9082C13.9924 19.0843 13.9959 19.2603 13.9996 19.4416C13.9998 20.189 13.9894 20.6703 13.6324 21.3374C13.1498 21.7237 12.9085 21.7667 12.2949 21.7704C12.1149 21.7715 11.9349 21.7726 11.7494 21.7737C11.5623 21.7704 11.3752 21.7671 11.1824 21.7636C10.9028 21.7686 10.9028 21.7686 10.6174 21.7737C10.4372 21.7726 10.257 21.7715 10.0713 21.7704C9.90733 21.7694 9.74339 21.7684 9.57449 21.7674C8.88486 21.6026 8.65462 21.3807 8.2498 20.7968C8.13354 20.1657 8.14975 19.5481 8.16588 18.9082C8.16709 18.7263 8.16831 18.5444 8.16956 18.357C8.17436 17.7773 8.18515 17.1978 8.19609 16.6181C8.2004 16.2246 8.20432 15.831 8.20784 15.4375C8.2173 14.4739 8.23167 13.5104 8.2498 12.5468C8.06125 12.5548 7.87271 12.5628 7.67845 12.571C7.42847 12.5775 7.17849 12.5837 6.92851 12.5898C6.80455 12.5956 6.68059 12.6013 6.55287 12.6073C5.8887 12.6194 5.57186 12.5914 4.99156 12.2326C4.36634 11.568 4.43181 10.854 4.42558 9.9902C4.42203 9.86857 4.41849 9.74693 4.41484 9.62161C4.40905 8.84425 4.48726 8.34093 4.98417 7.73434C5.58695 7.27259 6.27775 7.35127 7.0037 7.36911C7.12357 7.37066 7.24343 7.37221 7.36693 7.37381C7.66124 7.37784 7.95553 7.38401 8.2498 7.39059C8.24182 7.1892 8.23385 6.9878 8.22563 6.7803C8.17096 4.83671 8.18947 3.17123 9.5496 1.64352C10.9693 0.391011 12.4239 0.281616 14.2547 0.257782ZM10.3687 2.91714C9.77792 3.80497 9.60236 4.54678 9.60801 5.61008C9.60884 5.88592 9.60884 5.88592 9.60969 6.16733C9.61113 6.35831 9.61257 6.54929 9.61406 6.74606C9.61483 6.9397 9.61561 7.13335 9.61641 7.33286C9.61843 7.81044 9.62126 8.28801 9.6248 8.76559C9.51636 8.76469 9.40792 8.76379 9.2962 8.76287C8.80775 8.75931 8.31931 8.75706 7.83085 8.75485C7.66014 8.75341 7.48943 8.75197 7.31355 8.75049C7.15126 8.74993 6.98897 8.74938 6.82176 8.74881C6.59629 8.74746 6.59629 8.74746 6.36627 8.74608C6.01639 8.72643 6.01639 8.72643 5.84355 8.93747C5.83107 9.31326 5.82916 9.68942 5.83281 10.0654C5.83635 10.4305 5.8399 10.7957 5.84355 11.1718C7.09136 11.1718 8.33917 11.1718 9.6248 11.1718C9.6248 14.1779 9.6248 17.184 9.6248 20.2812C10.589 20.2812 11.5532 20.2812 12.5467 20.2812C12.5467 17.2751 12.5467 14.269 12.5467 11.1718C13.5676 11.1718 14.5885 11.1718 15.6404 11.1718C15.6971 10.9343 15.7539 10.6968 15.8123 10.4521C15.8602 10.2517 15.8602 10.2517 15.909 10.0473C16.0093 9.55545 16.0093 9.55545 15.9842 8.76559C14.8498 8.76559 13.7154 8.76559 12.5467 8.76559C12.5662 8.17465 12.588 7.58394 12.6111 6.99313C12.6191 6.74139 12.6191 6.74139 12.6272 6.48456C12.6339 6.32337 12.6405 6.16219 12.6474 5.99612C12.6528 5.84761 12.6582 5.6991 12.6637 5.54609C12.7185 5.15622 12.7185 5.15622 13.0623 4.64059C13.6222 4.55264 13.6222 4.55264 14.2869 4.52243C14.8718 4.49584 14.8718 4.49584 15.4685 4.46872C15.4685 3.56122 15.4685 2.65372 15.4685 1.71872C12.6577 1.50258 12.6577 1.50258 10.3687 2.91714Z" fill="currentColor"/>
</svg>
