<!-- Generated by IcoMoon.io -->
<svg version="1.1" xmlns="http://www.w3.org/2000/svg" width="1024" height="1024" viewBox="0 0 1024 1024">
<g id="icomoon-ignore">
</g>
<path fill="#000" d="M959.987 80c18.893 0 36.064 11.076 43.808 28.312 7.75 17.237 4.614 37.432-7.936 51.563l-346.246 389.937v346.188c0 16.461-8.467 31.763-22.378 40.563-13.928 8.794-31.441 9.83-46.313 2.752l-179.187-85.312c-16.702-7.962-27.368-24.813-27.375-43.315v-260.876l-346.25-389.937c-12.547-14.131-15.683-34.326-7.938-51.563s24.915-28.312 43.812-28.312h896.002zM458.298 499.75c7.796 8.783 12.062 20.132 12.063 31.875v248.689l83.25 39.622v-288.311c0-11.743 4.266-23.092 12.062-31.875l287.499-323.75h-682.374l287.5 323.75z"></path>
</svg>
