<svg viewBox="0 0 22 22" xmlns="http://www.w3.org/2000/svg">
  <path d="M17 20.5V22H5V20.5H17ZM20.5 17V5C20.5 3.067 18.933 1.5 17 1.5H5C3.067 1.5 1.5 3.067 1.5 5V17C1.5 18.933 3.067 20.5 5 20.5V22C2.32472 22 0.140529 19.8989 0.00683594 17.2568L0 17V5C2.57711e-07 2.23858 2.23858 8.0532e-08 5 0H17L17.2568 0.00683594C19.8989 0.140529 22 2.32472 22 5V17L21.9932 17.2568C21.8638 19.8138 19.8138 21.8638 17.2568 21.9932L17 22V20.5C18.933 20.5 20.5 18.933 20.5 17Z" fill="currentColor"/>
  <path d="M15 11C15 8.79086 13.2091 7 11 7C8.79086 7 7 8.79086 7 11C7 13.2091 8.79086 15 11 15V16.5C7.96243 16.5 5.5 14.0376 5.5 11C5.5 7.96243 7.96243 5.5 11 5.5C14.0376 5.5 16.5 7.96243 16.5 11C16.5 14.0376 14.0376 16.5 11 16.5V15C13.2091 15 15 13.2091 15 11Z" fill="currentColor"/>
  <path d="M18.2 4.6C18.2 5.20751 17.7075 5.7 17.1 5.7C16.4925 5.7 16 5.20751 16 4.6C16 3.99249 16.4925 3.5 17.1 3.5C17.7075 3.5 18.2 3.99249 18.2 4.6Z" fill="currentColor"/>
</svg>
