<svg viewBox="0 0 22 22" xmlns="http://www.w3.org/2000/svg">
  <path d="M0 10.67C0 4.53902 4.80336 0 11 0C17.1966 0 22 4.53902 22 10.67C22 16.801 17.1966 21.34 11 21.34C9.88697 21.34 8.81912 21.193 7.81584 20.9172C7.6208 20.8635 7.41341 20.8787 7.22831 20.9603L5.04498 21.9241C4.47387 22.1762 3.82917 21.7701 3.81003 21.146L3.75012 19.1893C3.74275 18.9482 3.63429 18.7229 3.45462 18.5621C1.31428 16.648 0 13.8769 0 10.67ZM7.62579 8.66402L4.39454 13.7904C4.08446 14.2824 4.68922 14.8368 5.15244 14.4853L8.62337 11.8511C8.85813 11.6729 9.18259 11.672 9.41837 11.8488L11.9884 13.7763C12.7596 14.3547 13.8602 14.1517 14.3742 13.3361L17.6055 8.20968C17.9155 7.71768 17.3108 7.16328 16.8476 7.51486L13.3767 10.149C13.1419 10.3272 12.8174 10.3282 12.5816 10.1513L10.0117 8.22381C9.24047 7.64542 8.13979 7.84846 7.62579 8.66402Z" fill="currentColor"/>
</svg>
