<!-- Generated by IcoMoon.io -->
<svg version="1.1" xmlns="http://www.w3.org/2000/svg" width="1024" height="1024" viewBox="0 0 1024 1024">
<g id="icomoon-ignore">
</g>
<path fill="#000" d="M789.35 465.050c-0.010-179.080-145.219-324.25-324.3-324.25-179.075 0.009-324.241 145.176-324.25 324.25 0 179.082 145.17 324.29 324.25 324.3 179.087 0 324.3-145.213 324.3-324.3zM891.75 465.050c0 235.642-191.058 426.7-426.7 426.7-235.634-0.010-426.65-191.063-426.65-426.7 0.009-235.629 191.022-426.641 426.65-426.65 235.637 0 426.69 191.016 426.7 426.65z"></path>
<path fill="#000" d="M694.047 694.047c19.994-19.994 52.403-19.994 72.402 0l204.15 204.15c19.994 19.994 19.994 52.403 0 72.402-19.999 19.994-52.408 19.994-72.402 0l-204.15-204.15c-19.994-19.999-19.994-52.408 0-72.402z"></path>
</svg>
