<svg width="33" height="33" viewBox="0 0 33 33" fill="none" xmlns="http://www.w3.org/2000/svg">
<path d="M25.142 10.1528C27.859 10.1528 30.069 7.9428 30.069 5.2268C30.069 2.5098 27.859 0.299805 25.142 0.299805C22.426 0.299805 20.216 2.5098 20.216 5.2268C20.216 5.8658 20.347 6.47181 20.57 7.03281L10.784 12.7088C9.89099 11.8088 8.65499 11.2498 7.29099 11.2498C4.57499 11.2498 2.36499 13.4598 2.36499 16.1758C2.36499 18.8928 4.57499 21.1028 7.29099 21.1028C8.67599 21.1028 9.92499 20.5228 10.821 19.5988L20.525 25.7148C20.337 26.2358 20.217 26.7888 20.217 27.3738C20.217 30.0898 22.427 32.2998 25.143 32.2998C27.86 32.2998 30.07 30.0898 30.07 27.3738C30.07 24.6568 27.86 22.4468 25.143 22.4468C23.731 22.4468 22.465 23.0518 21.566 24.0068L11.887 17.9058C12.091 17.3648 12.217 16.7858 12.217 16.1748C12.217 15.5438 12.087 14.9458 11.87 14.3908L21.665 8.7098C22.555 9.6018 23.785 10.1528 25.142 10.1528ZM25.142 24.4478C26.756 24.4478 28.069 25.7608 28.069 27.3748C28.069 28.9878 26.756 30.3008 25.142 30.3008C23.529 30.3008 22.216 28.9878 22.216 27.3748C22.216 26.8368 22.372 26.3388 22.626 25.9058C22.634 25.8948 22.644 25.8868 22.652 25.8748C22.663 25.8578 22.663 25.8378 22.673 25.8208C23.19 24.9988 24.1 24.4478 25.142 24.4478ZM7.28999 19.1038C5.67699 19.1038 4.36399 17.7908 4.36399 16.1768C4.36399 14.5638 5.67699 13.2508 7.28999 13.2508C8.24399 13.2508 9.08499 13.7168 9.61999 14.4258C9.63399 14.4578 9.63499 14.4918 9.65299 14.5218C9.69999 14.6038 9.75799 14.6748 9.82299 14.7378C10.066 15.1648 10.217 15.6508 10.217 16.1758C10.217 16.7498 10.045 17.2828 9.75799 17.7348C9.75599 17.7378 9.75299 17.7388 9.75099 17.7418C9.74699 17.7478 9.74799 17.7538 9.74399 17.7598C9.22099 18.5668 8.31899 19.1038 7.28999 19.1038ZM25.142 2.3008C26.756 2.3008 28.069 3.6138 28.069 5.2278C28.069 6.8408 26.756 8.1538 25.142 8.1538C23.529 8.1538 22.216 6.8408 22.216 5.2278C22.216 3.6128 23.528 2.3008 25.142 2.3008Z" fill="black"/>
</svg>
