<svg width="24" height="24" viewBox="0 0 24 24" fill="none" xmlns="http://www.w3.org/2000/svg">
<path d="M21 5.25C21.4142 5.25 21.75 5.58579 21.75 6C21.75 6.41421 21.4142 6.75 21 6.75H3C2.58579 6.75 2.25 6.41421 2.25 6C2.25 5.58579 2.58579 5.25 3 5.25H21Z" fill="black"/>
<path d="M4.25 20V6C4.25 5.58579 4.58579 5.25 5 5.25C5.41421 5.25 5.75 5.58579 5.75 6V20C5.75 20.3315 5.88179 20.6494 6.11621 20.8838C6.35063 21.1182 6.66848 21.25 7 21.25H17C17.3315 21.25 17.6494 21.1182 17.8838 20.8838C18.1182 20.6494 18.25 20.3315 18.25 20V6C18.25 5.58579 18.5858 5.25 19 5.25C19.4142 5.25 19.75 5.58579 19.75 6V20C19.75 20.7293 19.4601 21.4286 18.9443 21.9443C18.4286 22.4601 17.7293 22.75 17 22.75H7C6.27065 22.75 5.57139 22.4601 5.05566 21.9443C4.53994 21.4286 4.25 20.7293 4.25 20ZM15.25 6V4C15.25 3.66848 15.1182 3.35063 14.8838 3.11621C14.6494 2.88179 14.3315 2.75 14 2.75H10C9.66848 2.75 9.35063 2.88179 9.11621 3.11621C8.88179 3.35063 8.75 3.66848 8.75 4V6C8.75 6.41421 8.41421 6.75 8 6.75C7.58579 6.75 7.25 6.41421 7.25 6V4C7.25 3.27065 7.53994 2.57139 8.05566 2.05566C8.57139 1.53994 9.27065 1.25 10 1.25H14C14.7293 1.25 15.4286 1.53994 15.9443 2.05566C16.4601 2.57139 16.75 3.27065 16.75 4V6C16.75 6.41421 16.4142 6.75 16 6.75C15.5858 6.75 15.25 6.41421 15.25 6Z" fill="black"/>
<path d="M9.25 17V11C9.25 10.5858 9.58579 10.25 10 10.25C10.4142 10.25 10.75 10.5858 10.75 11V17C10.75 17.4142 10.4142 17.75 10 17.75C9.58579 17.75 9.25 17.4142 9.25 17Z" fill="black"/>
<path d="M13.25 17V11C13.25 10.5858 13.5858 10.25 14 10.25C14.4142 10.25 14.75 10.5858 14.75 11V17C14.75 17.4142 14.4142 17.75 14 17.75C13.5858 17.75 13.25 17.4142 13.25 17Z" fill="black"/>
</svg>
