<svg width="32" height="32" viewBox="0 0 32 32" fill="none" xmlns="http://www.w3.org/2000/svg">
<path d="M30.5 7.8802C30.5206 6.93732 30.2412 6.01225 29.702 5.23849C29.1628 4.46473 28.3917 3.88228 27.5 3.5752L20.915 1.5752C20.7179 1.51938 20.5104 1.51128 20.3096 1.55158C20.1088 1.59188 19.9204 1.67942 19.7602 1.80695C19.5999 1.93448 19.4723 2.09834 19.3879 2.28497C19.3036 2.4716 19.2648 2.67564 19.275 2.8802C17.1347 2.22034 14.8453 2.22034 12.705 2.8802C12.7151 2.67564 12.6764 2.4716 12.592 2.28497C12.5076 2.09834 12.38 1.93448 12.2198 1.80695C12.0595 1.67942 11.8712 1.59188 11.6704 1.55158C11.4696 1.51128 11.262 1.51938 11.065 1.5752L4.49997 3.5752C3.60826 3.88228 2.83716 4.46473 2.29795 5.23849C1.75874 6.01225 1.47931 6.93732 1.49997 7.8802V15.5002C1.47478 15.808 1.55914 16.1148 1.73815 16.3664C1.91716 16.6181 2.17932 16.7984 2.47834 16.8755C2.77737 16.9527 3.09404 16.9217 3.37245 16.7881C3.65086 16.6545 3.87311 16.4268 3.99997 16.1452C4.11497 20.5002 6.08997 23.7002 10.195 26.4152C10.6296 27.6054 11.4197 28.6333 12.458 29.3595C13.4964 30.0857 14.7329 30.4752 16 30.4752C17.2671 30.4752 18.5036 30.0857 19.5419 29.3595C20.5803 28.6333 21.3703 27.6054 21.805 26.4152C25.91 23.6952 27.885 20.5002 28 16.1602C28.1268 16.4439 28.3503 16.6734 28.6306 16.8075C28.911 16.9416 29.2299 16.9717 29.5304 16.8924C29.8309 16.8131 30.0934 16.6295 30.271 16.3745C30.4486 16.1194 30.5298 15.8096 30.5 15.5002V7.8802ZM3.09997 15.6852C2.87497 16.0302 2.49997 15.9402 2.49997 15.5002V7.8802C2.47603 7.15288 2.68402 6.4368 3.09389 5.83548C3.50375 5.23417 4.09424 4.77879 4.77997 4.5352L11.37 2.5002C11.4158 2.48052 11.467 2.47776 11.5147 2.49241C11.5623 2.50707 11.6032 2.53819 11.63 2.5802C11.6926 2.68321 11.7228 2.8027 11.7166 2.9231C11.7103 3.0435 11.6679 3.15923 11.595 3.2552L3.09997 15.6852ZM16 29.5002C15.1728 29.4917 14.3595 29.2864 13.6274 28.9013C12.8953 28.5161 12.2655 27.9621 11.79 27.2852C12.05 27.4002 12.315 27.5052 12.58 27.5952C12.6327 27.6187 12.6881 27.6354 12.745 27.6452C13.8444 27.916 15.0053 27.7662 16 27.2252C16.993 27.7652 18.1514 27.9167 19.25 27.6502C19.2946 27.6413 19.3381 27.6279 19.38 27.6102L19.605 27.5252C19.8 27.4552 19.99 27.3802 20.18 27.2952C19.7069 27.9668 19.0815 28.5167 18.3549 28.9C17.6284 29.2833 16.8214 29.489 16 29.5002ZM16 23.0002L13.625 20.2402H18.385L16 23.0002ZM27 15.5602C27.19 20.4352 24.04 24.5952 19.21 26.5952L19.03 26.6652C18.1685 26.8789 17.2587 26.7723 16.47 26.3652V23.8652C16.515 23.9902 19.03 20.9052 19.105 20.8652C19.2212 20.7202 19.2948 20.5456 19.3173 20.3611C19.3399 20.1766 19.3106 19.9895 19.2327 19.8207C19.1548 19.6519 19.0314 19.5082 18.8764 19.4057C18.7213 19.3031 18.5408 19.2458 18.355 19.2402H13.615C13.4292 19.2458 13.2486 19.3031 13.0936 19.4057C12.9386 19.5082 12.8152 19.6519 12.7373 19.8207C12.6594 19.9895 12.6301 20.1766 12.6526 20.3611C12.6752 20.5456 12.7487 20.7202 12.865 20.8652C12.94 20.9302 15.45 23.9902 15.5 23.8652V26.3652C14.7131 26.7724 13.8048 26.8791 12.945 26.6652C12.0936 26.3767 11.2873 25.9693 10.55 25.4552C6.30997 22.5952 4.71497 19.2852 4.99997 14.6752C6.75997 12.1052 10.46 6.7002 12.235 4.1002C14.6512 3.13008 17.3487 3.13008 19.765 4.1002L27 14.6752C27 14.9552 27.03 15.2452 27.03 15.5602H27ZM29.27 15.8902C29.1902 15.9022 29.1087 15.8889 29.037 15.8521C28.9652 15.8154 28.9068 15.757 28.87 15.6852L20.37 3.2702C20.297 3.17423 20.2546 3.0585 20.2484 2.9381C20.2421 2.8177 20.2723 2.69821 20.335 2.5952C20.3471 2.56869 20.3646 2.545 20.3864 2.52564C20.4082 2.50627 20.4338 2.49166 20.4615 2.48272C20.4893 2.47378 20.5186 2.47072 20.5476 2.47373C20.5766 2.47674 20.6046 2.48576 20.63 2.5002L27.215 4.5002C27.9075 4.74471 28.5033 5.20507 28.9147 5.81353C29.326 6.42199 29.5312 7.14641 29.5 7.8802V15.5002C29.5 15.7102 29.425 15.8502 29.3 15.8902H29.27Z" fill="black"/>
<path d="M20.8119 1.24619L20.9965 1.28623L21.0024 1.28818L27.5873 3.28818L27.5981 3.29111L27.5971 3.29208C28.5489 3.61987 29.3721 4.24155 29.9477 5.06748C30.5219 5.89149 30.8208 6.87596 30.8002 7.87998V15.5001C30.8293 15.8708 30.7298 16.2404 30.517 16.546C30.2987 16.8594 29.9761 17.0852 29.6069 17.1827C29.2377 17.2802 28.8459 17.243 28.5014 17.0782C28.4159 17.0373 28.3344 16.9892 28.2582 16.9347C28.1075 18.8345 27.583 20.5226 26.6547 22.0509C25.6183 23.757 24.0886 25.2476 22.0502 26.6104C21.5878 27.819 20.7749 28.863 19.7133 29.6056C18.6246 30.3669 17.3279 30.7755 15.9994 30.7755C14.671 30.7754 13.3742 30.3669 12.2856 29.6056C11.2239 28.863 10.411 27.8191 9.94865 26.6104C7.91051 25.25 6.38041 23.7594 5.34416 22.0509C4.41506 20.519 3.88978 18.8249 3.73966 16.9171C3.66493 16.9704 3.58606 17.0185 3.50236 17.0587C3.16031 17.2229 2.77112 17.2608 2.40373 17.1661C2.03622 17.0713 1.71358 16.8494 1.49357 16.5401C1.27836 16.2375 1.17495 15.8701 1.19962 15.5001V7.87998C1.17908 6.87595 1.47796 5.8915 2.05216 5.06748C2.62762 4.2417 3.45016 3.61991 4.40177 3.29208L4.41252 3.28818L10.9779 1.28818L10.9828 1.28623C11.2256 1.21745 11.4815 1.2083 11.7289 1.25791C11.9764 1.30758 12.2091 1.41517 12.4067 1.57236C12.6041 1.72951 12.7617 1.93128 12.8656 2.16123C12.9135 2.26718 12.9475 2.37828 12.9711 2.4913C14.9473 1.95112 17.032 1.95119 19.0082 2.4913C19.0319 2.37825 19.0668 2.2672 19.1147 2.16123C19.2187 1.93131 19.3762 1.72948 19.5736 1.57236C19.7711 1.41528 20.003 1.30757 20.2504 1.25791C20.4359 1.22068 20.6261 1.21676 20.8119 1.24619ZM20.9145 1.57529C20.7177 1.51961 20.5105 1.51168 20.31 1.55185L20.1615 1.59091C20.0164 1.63848 19.8803 1.71117 19.7602 1.80673L19.6459 1.90927C19.5385 2.01788 19.4514 2.14533 19.3881 2.28525L19.3334 2.42783C19.2874 2.57351 19.2673 2.72657 19.2748 2.87998C17.1346 2.22016 14.8448 2.22013 12.7045 2.87998C12.7121 2.72661 12.6929 2.57347 12.6469 2.42783L12.5922 2.28525C12.5289 2.14523 12.4409 2.01793 12.3334 1.90927L12.2201 1.80673C12.1001 1.71119 11.9638 1.63852 11.8188 1.59091L11.6703 1.55185C11.4695 1.51155 11.2619 1.51947 11.0649 1.57529L4.49943 3.57529C3.60801 3.88236 2.83737 4.46489 2.29826 5.23837L2.10783 5.53525C1.69338 6.24352 1.48141 7.05499 1.49943 7.87998V15.5001C1.47425 15.8078 1.55885 16.1147 1.73771 16.3663C1.91668 16.6179 2.179 16.7989 2.47794 16.8761C2.73956 16.9436 3.01484 16.9275 3.26603 16.8331L3.37248 16.7882C3.65071 16.6546 3.87255 16.4269 3.99943 16.1456C4.11451 20.5004 6.08995 23.7002 10.1947 26.4151C10.6294 27.6054 11.4201 28.6332 12.4584 29.3595C13.4319 30.0403 14.5794 30.4254 15.7631 30.4708L15.9994 30.4757C17.2664 30.4757 18.5031 30.0856 19.5414 29.3595C20.5798 28.6332 21.3704 27.6054 21.8051 26.4151C25.9099 23.6952 27.8844 20.5002 27.9994 16.1602C28.1262 16.4439 28.35 16.6736 28.6303 16.8077C28.8755 16.925 29.1504 16.9625 29.4164 16.9171L29.5307 16.8927C29.7935 16.8232 30.0273 16.6739 30.2006 16.4669L30.2709 16.3741C30.4484 16.1191 30.5292 15.8093 30.4994 15.5001V7.87998C30.52 6.9372 30.2407 6.01205 29.7016 5.23837C29.1624 4.46476 28.391 3.88233 27.4994 3.57529L20.9145 1.57529ZM15.9994 27.2257C16.9924 27.7656 18.151 27.9168 19.2494 27.6505C19.294 27.6416 19.3384 27.6282 19.3803 27.6104L19.6049 27.5255C19.7999 27.4555 19.9901 27.38 20.1801 27.295C19.707 27.9666 19.0815 28.5172 18.3549 28.9005L18.0785 29.0352C17.4261 29.3315 16.7181 29.4902 15.9994 29.5001C15.2758 29.4926 14.5629 29.3346 13.9057 29.0372L13.6274 28.9015C12.8953 28.5163 12.265 27.9622 11.7895 27.2852C12.0493 27.4002 12.3147 27.5049 12.5795 27.5948C12.6321 27.6182 12.6878 27.6358 12.7445 27.6456C13.8438 27.9163 15.0049 27.7664 15.9994 27.2257ZM15.9994 27.5616C15.0089 28.0584 13.8785 28.2003 12.7953 27.963C13.0901 28.2245 13.4158 28.4511 13.767 28.6358C14.4556 28.9981 15.2205 29.1906 15.9985 29.1993C16.7715 29.1883 17.5314 28.9956 18.2153 28.6349C18.5601 28.4529 18.88 28.23 19.1703 27.9737C18.0967 28.1985 16.9797 28.0535 15.9994 27.5616ZM12.2348 4.10068C14.651 3.13056 17.3488 3.13056 19.7651 4.10068L26.9994 14.6749C26.9994 14.9549 27.0297 15.2456 27.0297 15.5606H26.9994C27.1893 20.4353 24.0399 24.5948 19.2104 26.5948L19.0297 26.6651C18.1683 26.8788 17.2588 26.7723 16.4701 26.3653V23.8653C16.473 23.8731 16.4851 23.8677 16.5063 23.8517L16.7524 23.7638C16.7396 23.7283 16.718 23.696 16.6918 23.6671C17.2233 23.1021 18.5464 21.5032 18.9721 21.0108L19.1049 20.8653C19.1921 20.7565 19.2548 20.6309 19.2904 20.4972L19.3168 20.3614C19.3337 20.223 19.3218 20.0828 19.2817 19.9503L19.2328 19.8204C19.1745 19.694 19.0903 19.5818 18.9867 19.4903L18.8764 19.4054C18.7214 19.3029 18.5406 19.246 18.3549 19.2403H13.6147C13.429 19.246 13.2482 19.3029 13.0932 19.4054C12.9382 19.5079 12.8146 19.6517 12.7367 19.8204C12.6588 19.9892 12.6302 20.1769 12.6527 20.3614C12.6753 20.5458 12.7485 20.7204 12.8647 20.8653C12.9265 20.9189 14.6477 23.0083 15.2758 23.669C15.2532 23.6945 15.2337 23.7226 15.2211 23.754L15.4594 23.8487C15.4829 23.8667 15.496 23.8734 15.4994 23.8653V26.3653C14.7126 26.7724 13.8044 26.879 12.9447 26.6651C12.0935 26.3766 11.2875 25.9692 10.5502 25.4552C6.31021 22.5952 4.71443 19.2849 4.99943 14.6749C6.75937 12.105 10.4597 6.70078 12.2348 4.10068ZM19.5707 4.34775C17.2743 3.44956 14.7245 3.44935 12.4281 4.34775C10.6493 6.95313 7.05477 12.2039 5.29435 14.7745C5.16689 17.0045 5.49184 18.9033 6.34513 20.586C7.20919 22.29 8.62752 23.7965 10.7172 25.2061L10.7211 25.2091C11.4316 25.7045 12.2088 26.0969 13.0287 26.3761C13.7565 26.5544 14.5196 26.48 15.1996 26.1729V24.0186C15.1887 24.0084 15.1759 23.9996 15.1654 23.9894C15.0847 23.9105 14.9772 23.7951 14.8549 23.6593C14.6083 23.3855 14.285 23.0099 13.9633 22.631C13.641 22.2514 13.3182 21.8653 13.0717 21.5714C12.9484 21.4244 12.8443 21.301 12.769 21.212C12.7313 21.1675 12.7014 21.1321 12.6801 21.1075C12.671 21.0971 12.6635 21.0896 12.6586 21.0841L12.6479 21.0743L12.6313 21.0528C12.4801 20.8643 12.3842 20.6374 12.3549 20.3976C12.3256 20.1577 12.364 19.9148 12.4652 19.6954C12.5665 19.476 12.7266 19.2887 12.9281 19.1554C13.1297 19.0221 13.3644 18.9478 13.6059 18.9405H18.3637C18.6051 18.9478 18.8399 19.0222 19.0414 19.1554C19.243 19.2887 19.404 19.476 19.5053 19.6954C19.6064 19.9147 19.644 20.1578 19.6147 20.3976C19.5854 20.6373 19.4903 20.8643 19.3393 21.0528L19.3002 21.1007L19.2846 21.1085C19.2647 21.1303 19.2362 21.1637 19.1986 21.2071C19.124 21.2935 19.0203 21.4153 18.8969 21.5616C18.6511 21.853 18.3271 22.241 18.0053 22.6212C17.6834 23.0015 17.3599 23.3789 17.1137 23.6544C16.9914 23.7913 16.8842 23.9081 16.8041 23.9874C16.7934 23.998 16.781 24.0072 16.7699 24.0177V26.1729C17.4513 26.48 18.2156 26.554 18.9447 26.3761L19.101 26.3155C23.8368 24.3522 26.8845 20.2943 26.7006 15.5724L26.6879 15.2599H26.7201C26.718 15.2135 26.7176 15.167 26.7153 15.1202C26.7095 15.0067 26.705 14.8895 26.7026 14.7726L19.5707 4.34775ZM16.5063 23.8517C16.5224 23.8394 16.5422 23.8195 16.5678 23.795L16.7524 23.7638L16.5063 23.8517ZM15.3881 23.7852C15.4172 23.8132 15.441 23.8347 15.4594 23.8487L15.2211 23.754L15.3881 23.7852ZM15.9994 23.0001L13.6244 20.2403H18.3852L15.9994 23.0001ZM15.9994 22.5401L17.7289 20.5401H14.2777L15.9994 22.5401ZM11.5151 2.49228C11.5625 2.50698 11.6036 2.53826 11.6303 2.58017C11.6929 2.68309 11.7224 2.80265 11.7162 2.92294C11.71 3.04321 11.668 3.15907 11.5951 3.25498L3.10002 15.6856L3.05607 15.7452C2.82948 16.0178 2.49943 15.9125 2.49943 15.5001V7.87998C2.47854 7.24376 2.63569 6.6162 2.94962 6.0665L3.09416 5.83603C3.50399 5.23476 4.09403 4.77885 4.7797 4.53525L11.3695 2.50009C11.4153 2.48041 11.4674 2.47762 11.5151 2.49228ZM20.5473 2.47373C20.5763 2.47674 20.605 2.48565 20.6303 2.50009L27.2153 4.50009C27.9077 4.74462 28.5032 5.20523 28.9145 5.81357C29.3258 6.42194 29.5306 7.14629 29.4994 7.87998L29.2006 7.86728C29.229 7.19781 29.0417 6.53667 28.6664 5.98154C28.2911 5.4263 27.7466 5.00642 27.1147 4.7833H27.1137L20.5717 2.79599C20.5555 2.8363 20.546 2.87915 20.5483 2.92294C20.5498 2.95282 20.5557 2.98206 20.5658 3.00986L20.6088 3.08896L20.6137 3.09482L20.6176 3.10068L29.1176 15.5157L29.1283 15.5313L29.1371 15.5479C29.1452 15.5636 29.1576 15.5769 29.1733 15.5851C29.1784 15.5877 29.1844 15.5894 29.1899 15.5909C29.1947 15.5709 29.1996 15.5413 29.1996 15.5001V7.86728L29.4994 7.87998V15.5001C29.4994 15.6838 29.4422 15.8137 29.3442 15.8702L29.3002 15.8907H29.2699C29.2101 15.8997 29.1492 15.8938 29.0922 15.8751L29.0365 15.8526C28.9828 15.8251 28.9371 15.7848 28.9018 15.7364L28.8695 15.6856L20.3695 3.2706C20.3148 3.19861 20.2772 3.11529 20.2592 3.02744L20.2485 2.93857C20.2438 2.84838 20.2598 2.7585 20.2944 2.67587L20.3354 2.59482C20.3475 2.56854 20.3645 2.54471 20.3861 2.52548C20.4079 2.50613 20.4336 2.49145 20.4613 2.48251C20.489 2.4736 20.5184 2.47076 20.5473 2.47373ZM2.80021 15.5001C2.80021 15.5307 2.80336 15.5541 2.80705 15.5714C2.81878 15.56 2.83401 15.5446 2.84904 15.5216L2.85197 15.5157L11.3471 3.08603L11.352 3.08017L11.3559 3.07333C11.3923 3.02538 11.4133 2.96746 11.4164 2.90732C11.4182 2.87191 11.4122 2.83731 11.4018 2.8038L4.87638 4.81943C4.25231 5.04206 3.71446 5.45741 3.34123 6.00498C2.96748 6.55354 2.77841 7.20678 2.80021 7.87021V15.5001Z" fill="black"/>
<path d="M18.3149 15.2103C18.3149 15.3429 18.3676 15.4701 18.4614 15.5639C18.5552 15.6577 18.6823 15.7103 18.8149 15.7103C18.9475 15.7103 19.0747 15.6577 19.1685 15.5639C19.2623 15.4701 19.3149 15.3429 19.3149 15.2103C19.3749 12.6253 22.6549 12.6253 22.7149 15.2103C22.7149 15.3429 22.7676 15.4701 22.8614 15.5639C22.9552 15.6577 23.0823 15.7103 23.2149 15.7103C23.3475 15.7103 23.4747 15.6577 23.5685 15.5639C23.6623 15.4701 23.7149 15.3429 23.7149 15.2103C23.5999 11.3003 18.4299 11.3003 18.3149 15.2103Z" fill="black"/>
<path d="M19.3149 15.2104C19.3749 12.6254 22.6553 12.6254 22.7153 15.2104L22.7251 15.3081C22.7443 15.4043 22.7915 15.4936 22.8618 15.564C22.932 15.6341 23.0208 15.6815 23.1167 15.7007L23.2153 15.7104C23.3147 15.7104 23.4112 15.6808 23.4927 15.6265L23.5688 15.564C23.6392 15.4936 23.6864 15.4043 23.7056 15.3081L23.7153 15.2104C23.6003 11.3004 18.4299 11.3004 18.3149 15.2104L18.3247 15.3081C18.3439 15.4043 18.391 15.4936 18.4614 15.564C18.5318 15.6343 18.6211 15.6815 18.7173 15.7007L18.8149 15.7104C18.9144 15.7104 19.0108 15.6808 19.0923 15.6265L19.1685 15.564C19.2388 15.4936 19.286 15.4043 19.3052 15.3081L19.3149 15.2104ZM24.0151 15.2104C24.0151 15.4225 23.9307 15.6259 23.7808 15.7759C23.6308 15.9258 23.4274 16.0102 23.2153 16.0103C23.0032 16.0103 22.799 15.9259 22.6489 15.7759C22.5007 15.6275 22.4164 15.4268 22.4146 15.2173C22.388 14.0758 21.6753 13.5719 21.0151 13.5718C20.3549 13.5718 19.6412 14.0756 19.6147 15.2173C19.6129 15.4269 19.5288 15.6275 19.3804 15.7759C19.2303 15.9259 19.0271 16.0103 18.8149 16.0103C18.6028 16.0103 18.3995 15.9259 18.2495 15.7759C18.0995 15.6259 18.0152 15.4226 18.0151 15.2104V15.2017C18.0459 14.155 18.4174 13.3444 18.9819 12.7954C19.5439 12.2491 20.2813 11.978 21.0151 11.978C21.749 11.9781 22.4864 12.2491 23.0483 12.7954C23.6129 13.3444 23.9844 14.155 24.0151 15.2017V15.2104Z" fill="black"/>
<path d="M11.0001 12.25C10.2506 12.2876 9.54639 12.6197 9.0407 13.1741C8.535 13.7285 8.26881 14.4603 8.30008 15.21C8.30008 15.3426 8.35276 15.4698 8.44653 15.5636C8.5403 15.6573 8.66747 15.71 8.80008 15.71C8.93269 15.71 9.05987 15.6573 9.15363 15.5636C9.2474 15.4698 9.30008 15.3426 9.30008 15.21C9.36008 12.625 12.6401 12.625 12.7001 15.21C12.7001 15.3426 12.7528 15.4698 12.8465 15.5636C12.9403 15.6573 13.0675 15.71 13.2001 15.71C13.3327 15.71 13.4599 15.6573 13.5536 15.5636C13.6474 15.4698 13.7001 15.3426 13.7001 15.21C13.7314 14.4603 13.4652 13.7285 12.9595 13.1741C12.4538 12.6197 11.7495 12.2876 11.0001 12.25Z" fill="black"/>
<path d="M11.0152 11.9502C11.8436 11.9918 12.6222 12.3589 13.1812 12.9717C13.7402 13.5845 14.0341 14.3939 13.9996 15.2227L13.9986 15.2217C13.9955 15.4296 13.9125 15.6281 13.7652 15.7754C13.6152 15.9254 13.4119 16.0098 13.1998 16.0098C12.9876 16.0097 12.7843 15.9254 12.6343 15.7754C12.486 15.627 12.4017 15.4265 12.3999 15.2168C12.3734 14.0753 11.6597 13.5713 10.9996 13.5713C10.3395 13.5715 9.62671 14.0755 9.60014 15.2168C9.59837 15.4264 9.51404 15.627 9.36577 15.7754C9.21585 15.9253 9.01235 16.0096 8.80034 16.0098C8.58817 16.0098 8.38396 15.9254 8.23393 15.7754C8.08408 15.6254 7.99956 15.422 7.99956 15.21H8.00054C7.96943 14.3855 8.26269 13.5814 8.81889 12.9717C9.3779 12.3589 10.1565 11.9917 10.9849 11.9502L10.9996 11.9492L11.0152 11.9502ZM10.9996 12.25C10.2503 12.2877 9.54618 12.6196 9.04057 13.1738L8.86186 13.3896C8.47252 13.9114 8.27298 14.5539 8.30034 15.21L8.30913 15.3076C8.32826 15.4038 8.37557 15.4931 8.44585 15.5635C8.51613 15.6338 8.60567 15.681 8.70171 15.7002L8.80034 15.71C8.89975 15.7099 8.99621 15.6804 9.07768 15.626L9.15386 15.5635C9.22415 15.4931 9.27144 15.4038 9.29057 15.3076L9.30034 15.21C9.36038 12.625 12.6397 12.625 12.6998 15.21C12.6998 15.3425 12.7525 15.4697 12.8462 15.5635C12.94 15.6572 13.0672 15.7099 13.1998 15.71C13.3323 15.71 13.4595 15.6572 13.5533 15.5635C13.647 15.4697 13.6998 15.3426 13.6998 15.21C13.7271 14.5538 13.5267 13.9114 13.1373 13.3896L12.9595 13.1738C12.4538 12.6195 11.749 12.2876 10.9996 12.25Z" fill="black"/>
</svg>
