<svg width="22" height="22" viewBox="0 0 22 22" fill="none" xmlns="http://www.w3.org/2000/svg">
<path d="M15.5491 10.6133L9.25994 7.49129C9.10834 7.41568 8.94164 7.37881 8.77429 7.37881C8.58528 7.37881 8.39692 7.4263 8.23023 7.52316C7.91718 7.70376 7.72423 8.0287 7.72423 8.3774V14.6214C7.72423 14.9707 7.91718 15.295 8.23023 15.4768C8.39692 15.5724 8.58593 15.6212 8.77429 15.6212C8.94098 15.6212 9.10768 15.5843 9.25994 15.5075L15.5491 12.3855C15.8963 12.2136 16.1135 11.8718 16.1135 11.4988C16.1135 11.1282 15.8963 10.7864 15.5491 10.6133ZM8.77429 14.622V8.37802L15.0635 11.5L8.77429 14.622ZM21.3159 7.33632C20.9865 4.66551 19.8741 4.2962 17.6604 4.15247C16.0879 4.05062 13.5435 4 10.9991 4C8.45599 4 5.91419 4.05062 4.33911 4.15247C2.12546 4.29558 1.01436 4.66489 0.683596 7.33632C0.438801 9.32036 0.438801 13.6746 0.683596 15.6649C1.01436 18.3357 2.12611 18.7038 4.33911 18.8475C5.91288 18.9494 8.4573 19 11.0004 19C13.5435 19 16.0886 18.9494 17.6604 18.8475C19.8741 18.7044 20.9865 18.3364 21.3159 15.6649C21.5607 13.6796 21.562 9.32599 21.3159 7.33632ZM20.2731 15.5481C20.1123 16.8597 19.7822 17.2428 19.5485 17.4165C19.1745 17.6958 18.4952 17.7921 17.5902 17.8508C16.1339 17.9439 13.6708 18.0008 11.0004 18.0008C8.33064 18.0008 5.86694 17.9439 4.41064 17.8508C3.50694 17.7915 2.82703 17.6958 2.45229 17.4165C2.21865 17.2428 1.88919 16.8591 1.72643 15.5481C1.4928 13.6571 1.4928 9.34348 1.72643 7.4538C1.88919 6.14089 2.21865 5.75908 2.45229 5.58411C2.82703 5.30603 3.50694 5.2098 4.41064 5.15106C5.86694 5.05795 8.33064 5.00108 10.9998 5.00108C13.6702 5.00108 16.1345 5.05795 17.5902 5.15106C18.4952 5.21042 19.1745 5.30603 19.5485 5.58411C19.7822 5.75908 20.1123 6.14152 20.2731 7.4538C20.5067 9.34473 20.5067 13.6565 20.2731 15.5481Z" fill="black"/>
<path d="M10.9991 3.7998C13.5444 3.7998 16.0938 3.85086 17.6729 3.95312H17.6739C18.7763 4.02472 19.6654 4.15303 20.3145 4.63672C20.9753 5.12934 21.3474 5.95601 21.5147 7.31152C21.7628 9.31755 21.7615 13.688 21.5147 15.6895C21.3474 17.0456 20.9756 17.8729 20.3145 18.3652C19.6653 18.8486 18.7755 18.9756 17.6729 19.0469C16.0944 19.1491 13.544 19.2002 11 19.2002C8.77375 19.2002 6.5434 19.1612 4.96195 19.083L4.32621 19.0469C3.22408 18.9753 2.33561 18.8475 1.68656 18.3643C1.10826 17.9335 0.750407 17.247 0.557655 16.1738L0.485389 15.6895C0.238604 13.683 0.238585 9.31186 0.485389 7.31152C0.653311 5.95558 1.02479 5.12833 1.68558 4.63574C2.33459 4.15195 3.22355 4.02441 4.32621 3.95312C5.90787 3.85084 8.45483 3.79981 10.9991 3.7998ZM10.9991 4C8.45598 4 5.91398 4.05049 4.3389 4.15234C2.12551 4.29545 1.01445 4.66494 0.683632 7.33594C0.438837 9.31998 0.438837 13.6747 0.683632 15.665C1.0144 18.3357 2.12609 18.7039 4.3389 18.8477C5.91259 18.9495 8.45707 19 11 19C13.2253 19 15.4525 18.9617 17.0274 18.8838L17.6602 18.8477C19.7354 18.7135 20.8433 18.3816 21.2452 16.1396L21.3155 15.665C21.5603 13.6797 21.5616 9.32561 21.3155 7.33594C20.9859 4.66553 19.8737 4.29606 17.6602 4.15234C16.0877 4.0505 13.5433 4 10.9991 4ZM12.9512 5.01172C14.839 5.03207 16.4981 5.08154 17.5899 5.15137C18.4949 5.21073 19.1748 5.30591 19.5489 5.58398C19.7825 5.759 20.1127 6.14206 20.2735 7.4541C20.5071 9.34513 20.5071 13.6563 20.2735 15.5479L20.2051 15.998C20.031 16.9522 19.7533 17.265 19.5489 17.417L19.3946 17.5127C19.0016 17.7192 18.3821 17.7992 17.5899 17.8506C16.1335 17.9437 13.6703 18.001 11 18.001V17.8008C13.6688 17.8008 16.1272 17.7441 17.5772 17.6514C18.0277 17.6221 18.4134 17.5841 18.7295 17.5205C19.0478 17.4564 19.2768 17.3693 19.4287 17.2559C19.6 17.1285 19.9167 16.8089 20.0743 15.5234C20.3059 13.6482 20.3059 9.35321 20.0743 7.47852C19.9167 6.19279 19.6007 5.87291 19.4287 5.74414V5.74316C19.2767 5.63053 19.0473 5.54517 18.7295 5.48145C18.5713 5.44973 18.3955 5.42447 18.2032 5.40332L17.5772 5.35059C16.1279 5.25789 13.6687 5.20118 11 5.20117C8.33268 5.20117 5.8739 5.2579 4.42387 5.35059C3.97407 5.37982 3.58878 5.418 3.2725 5.48145C2.95379 5.54539 2.72381 5.63196 2.57133 5.74512C2.39915 5.87438 2.08403 6.19441 1.92484 7.47852C1.69325 9.35195 1.69324 13.6488 1.92484 15.5234L1.99125 15.9619C2.16084 16.8851 2.42146 17.1443 2.57133 17.2559H2.5723C2.72468 17.3694 2.95391 17.4565 3.2725 17.5205C3.58877 17.584 3.97398 17.6218 4.42387 17.6514C5.87382 17.7441 8.33218 17.8008 11 17.8008V18.001L9.04887 17.9902C7.16155 17.9699 5.50234 17.9204 4.41019 17.8506C3.61987 17.7987 3.00093 17.7188 2.60746 17.5127L2.45219 17.417C2.24778 17.265 1.97025 16.9518 1.79496 15.998L1.7266 15.5479C1.50758 13.7749 1.4939 9.87266 1.68558 7.83496L1.7266 7.4541C1.88935 6.14125 2.21855 5.75896 2.45219 5.58398C2.73329 5.37539 3.18622 5.26898 3.77641 5.2041L4.41019 5.15137C5.86649 5.05826 8.33092 5.00098 11 5.00098L12.9512 5.01172ZM7.52445 8.37695C7.52461 7.95358 7.75823 7.56411 8.12992 7.34961C8.32869 7.23421 8.55225 7.17871 8.77445 7.17871C8.97101 7.17873 9.16884 7.22232 9.34965 7.3125L15.6377 10.4346H15.6387C16.0499 10.6397 16.3135 11.0487 16.3135 11.499C16.3134 11.9515 16.0498 12.3605 15.6377 12.5645L9.34867 15.6865L9.34769 15.6855C9.16635 15.7767 8.96988 15.8213 8.77445 15.8213C8.55202 15.8213 8.32852 15.7637 8.1309 15.6504L8.12992 15.6494C7.75867 15.4337 7.52445 15.0455 7.52445 14.6211V8.37695ZM15.0635 11.5L8.77445 14.6221V8.37793L15.0635 11.5ZM8.97465 14.2988L14.6143 11.5L8.97465 8.7002V14.2988ZM7.72465 14.6211L7.73344 14.751C7.77466 15.0495 7.95661 15.3175 8.23051 15.4766C8.35539 15.5482 8.49258 15.5941 8.63285 15.6123L8.77445 15.6211C8.941 15.6211 9.10766 15.5846 9.2598 15.5078L15.5489 12.3857C15.8527 12.2353 16.0573 11.9545 16.1036 11.6367L16.1133 11.499C16.1133 11.1747 15.9472 10.872 15.6729 10.6855L15.5489 10.6133L9.2598 7.49121C9.14614 7.43455 9.024 7.39965 8.89945 7.38574L8.77445 7.37891C8.58547 7.37891 8.39719 7.4266 8.23051 7.52344L8.1182 7.59766C7.87191 7.78552 7.72479 8.07218 7.72465 8.37695V14.6211Z" fill="black"/>
</svg>
